<svg xmlns="http://www.w3.org/2000/svg" xmlns:xlink="http://www.w3.org/1999/xlink" width="40" zoomAndPan="magnify" viewBox="0 0 30 30.000001" height="40" preserveAspectRatio="xMidYMid meet" version="1.0"><defs><clipPath id="72dbee7268"><path d="M 0.484375 0 L 29.515625 0 L 29.515625 29.03125 L 0.484375 29.03125 Z M 0.484375 0 " clip-rule="nonzero"/></clipPath><clipPath id="09397a1ab6"><path d="M 8 1.035156 L 21 1.035156 L 21 15 L 8 15 Z M 8 1.035156 " clip-rule="nonzero"/></clipPath><clipPath id="28792fe81c"><path d="M 3 18 L 26.859375 18 L 26.859375 27.867188 L 3 27.867188 Z M 3 18 " clip-rule="nonzero"/></clipPath><clipPath id="1395a9df1c"><path d="M 3 20 L 26.859375 20 L 26.859375 27.867188 L 3 27.867188 Z M 3 20 " clip-rule="nonzero"/></clipPath><clipPath id="2a39bddafc"><path d="M 9 19 L 26.859375 19 L 26.859375 27.867188 L 9 27.867188 Z M 9 19 " clip-rule="nonzero"/></clipPath><clipPath id="8875f5eb37"><path d="M 8 1.035156 L 21 1.035156 L 21 10 L 8 10 Z M 8 1.035156 " clip-rule="nonzero"/></clipPath><clipPath id="59d7c00b60"><path d="M 11 19 L 18 19 L 18 27.867188 L 11 27.867188 Z M 11 19 " clip-rule="nonzero"/></clipPath><clipPath id="b3e725d903"><path d="M 14 26 L 16 26 L 16 27.867188 L 14 27.867188 Z M 14 26 " clip-rule="nonzero"/></clipPath><clipPath id="2b78db4eba"><path d="M 13 26 L 15 26 L 15 27.867188 L 13 27.867188 Z M 13 26 " clip-rule="nonzero"/></clipPath><clipPath id="ea6fa65cd1"><path d="M 15 26 L 17 26 L 17 27.867188 L 15 27.867188 Z M 15 26 " clip-rule="nonzero"/></clipPath></defs><g clip-path="url(#72dbee7268)"><path fill="#ffffff" d="M 0.484375 0 L 29.515625 0 L 29.515625 29.03125 L 0.484375 29.03125 Z M 0.484375 0 " fill-opacity="1" fill-rule="nonzero"/><path fill="#ffffff" d="M 0.484375 0 L 29.515625 0 L 29.515625 29.03125 L 0.484375 29.03125 Z M 0.484375 0 " fill-opacity="1" fill-rule="nonzero"/></g><g clip-path="url(#09397a1ab6)"><path fill="#6c0a3c" d="M 20.828125 7.625 C 20.828125 8.054688 20.789062 8.484375 20.710938 8.910156 C 20.632812 9.332031 20.515625 9.746094 20.363281 10.144531 C 20.210938 10.546875 20.023438 10.925781 19.800781 11.285156 C 19.578125 11.644531 19.324219 11.976562 19.042969 12.28125 C 18.757812 12.589844 18.453125 12.863281 18.117188 13.101562 C 17.785156 13.34375 17.433594 13.546875 17.066406 13.710938 C 16.695312 13.875 16.3125 14 15.921875 14.085938 C 15.527344 14.171875 15.132812 14.210938 14.734375 14.210938 C 14.332031 14.210938 13.9375 14.171875 13.542969 14.085938 C 13.152344 14 12.769531 13.875 12.398438 13.710938 C 12.03125 13.546875 11.679688 13.34375 11.347656 13.101562 C 11.011719 12.863281 10.707031 12.589844 10.421875 12.28125 C 10.140625 11.976562 9.886719 11.644531 9.664062 11.285156 C 9.441406 10.925781 9.253906 10.546875 9.101562 10.144531 C 8.949219 9.746094 8.832031 9.332031 8.753906 8.910156 C 8.675781 8.484375 8.636719 8.054688 8.636719 7.625 C 8.636719 7.191406 8.675781 6.761719 8.753906 6.339844 C 8.832031 5.914062 8.949219 5.503906 9.101562 5.101562 C 9.253906 4.703125 9.441406 4.324219 9.664062 3.964844 C 9.886719 3.601562 10.140625 3.269531 10.421875 2.964844 C 10.707031 2.660156 11.011719 2.386719 11.347656 2.144531 C 11.679688 1.90625 12.03125 1.703125 12.398438 1.535156 C 12.769531 1.371094 13.152344 1.246094 13.542969 1.160156 C 13.9375 1.078125 14.332031 1.035156 14.734375 1.035156 C 15.132812 1.035156 15.527344 1.078125 15.921875 1.160156 C 16.3125 1.246094 16.695312 1.371094 17.066406 1.535156 C 17.433594 1.703125 17.785156 1.90625 18.117188 2.144531 C 18.453125 2.386719 18.757812 2.660156 19.042969 2.964844 C 19.324219 3.269531 19.578125 3.601562 19.800781 3.964844 C 20.023438 4.324219 20.210938 4.703125 20.363281 5.101562 C 20.515625 5.503906 20.632812 5.914062 20.710938 6.339844 C 20.789062 6.761719 20.828125 7.191406 20.828125 7.625 Z M 20.828125 7.625 " fill-opacity="1" fill-rule="nonzero"/></g><g clip-path="url(#28792fe81c)"><path fill="#f4a360" d="M 25.179688 27.867188 C 25.933594 27.867188 26.558594 27.25 26.40625 26.507812 C 26.023438 24.648438 24.871094 22.917969 23.085938 21.570312 C 20.871094 19.902344 17.863281 18.960938 14.734375 18.960938 C 11.601562 18.960938 8.597656 19.902344 6.382812 21.570312 C 4.597656 22.917969 3.441406 24.648438 3.058594 26.507812 C 2.90625 27.25 3.53125 27.867188 4.285156 27.867188 Z M 25.179688 27.867188 " fill-opacity="1" fill-rule="nonzero"/></g><g clip-path="url(#1395a9df1c)"><path fill="#00222f" d="M 8.648438 20.234375 C 10.738281 21.152344 13.015625 21.894531 14.902344 21.886719 C 16.695312 21.875 18.851562 21.144531 20.832031 20.242188 C 21.644531 20.613281 22.402344 21.058594 23.085938 21.570312 C 24.871094 22.917969 26.023438 24.648438 26.40625 26.507812 C 26.558594 27.25 25.933594 27.867188 25.179688 27.867188 L 4.285156 27.867188 C 3.53125 27.867188 2.90625 27.25 3.058594 26.507812 C 3.441406 24.648438 4.597656 22.917969 6.382812 21.570312 C 7.066406 21.054688 7.832031 20.605469 8.648438 20.234375 Z M 8.648438 20.234375 " fill-opacity="1" fill-rule="nonzero"/></g><g clip-path="url(#2a39bddafc)"><path fill="#f41c67" d="M 9.863281 27.867188 L 25.480469 27.867188 C 25.480469 27.867188 25.484375 27.867188 25.484375 27.867188 C 26.234375 27.867188 26.859375 27.246094 26.707031 26.507812 C 26.324219 24.648438 25.171875 22.917969 23.386719 21.570312 C 22.125 20.621094 20.609375 19.90625 18.960938 19.46875 Z M 9.863281 27.867188 " fill-opacity="1" fill-rule="nonzero"/></g><path fill="#6c0a3c" d="M 19.601562 15.023438 C 19.832031 14.761719 19.984375 14.296875 19.984375 13.765625 C 19.984375 12.949219 19.621094 12.285156 19.171875 12.285156 C 18.722656 12.285156 18.359375 12.949219 18.359375 13.765625 C 18.359375 14.285156 18.507812 14.742188 18.730469 15.007812 C 18.5 15.269531 18.347656 15.734375 18.347656 16.265625 C 18.347656 16.773438 18.488281 17.226562 18.707031 17.492188 C 18.488281 17.757812 18.347656 18.207031 18.347656 18.71875 C 18.347656 19.535156 18.710938 20.199219 19.160156 20.199219 C 19.609375 20.199219 19.972656 19.535156 19.972656 18.71875 C 19.972656 18.207031 19.832031 17.757812 19.613281 17.492188 C 19.832031 17.226562 19.972656 16.773438 19.972656 16.265625 C 19.972656 15.742188 19.824219 15.285156 19.601562 15.023438 Z M 19.601562 15.023438 " fill-opacity="1" fill-rule="nonzero"/><path fill="#6c0a3c" d="M 19.183594 25.894531 C 19.183594 25.894531 20.738281 24.628906 20.738281 23.070312 C 20.738281 21.507812 20.042969 20.242188 19.183594 20.242188 C 18.328125 20.242188 17.632812 21.507812 17.632812 23.070312 C 17.632812 24.628906 19.183594 25.894531 19.183594 25.894531 Z M 19.183594 25.894531 " fill-opacity="1" fill-rule="nonzero"/><path fill="#2bb24e" d="M 18.800781 20.089844 C 18.730469 20.089844 18.671875 20.144531 18.671875 20.21875 L 18.671875 20.25 C 18.671875 20.324219 18.730469 20.378906 18.800781 20.378906 L 19.585938 20.378906 C 19.65625 20.378906 19.714844 20.324219 19.714844 20.25 L 19.714844 20.21875 C 19.714844 20.144531 19.65625 20.089844 19.585938 20.089844 Z M 18.800781 20.089844 " fill-opacity="1" fill-rule="nonzero"/><path fill="#f4a360" d="M 10.039062 9.992188 L 19.425781 9.992188 C 19.613281 9.992188 19.792969 10.027344 19.964844 10.097656 C 20.132812 10.167969 20.285156 10.269531 20.417969 10.402344 C 20.550781 10.535156 20.648438 10.6875 20.722656 10.859375 C 20.792969 11.03125 20.828125 11.210938 20.828125 11.398438 C 20.828125 11.585938 20.792969 11.765625 20.722656 11.9375 C 20.648438 12.109375 20.550781 12.261719 20.417969 12.394531 C 20.285156 12.527344 20.132812 12.628906 19.964844 12.699219 C 19.792969 12.769531 19.613281 12.804688 19.425781 12.804688 L 10.039062 12.804688 C 9.851562 12.804688 9.671875 12.769531 9.503906 12.699219 C 9.332031 12.628906 9.179688 12.527344 9.046875 12.394531 C 8.917969 12.261719 8.816406 12.109375 8.742188 11.9375 C 8.671875 11.765625 8.636719 11.585938 8.636719 11.398438 C 8.636719 11.210938 8.671875 11.03125 8.742188 10.859375 C 8.816406 10.6875 8.917969 10.535156 9.046875 10.402344 C 9.179688 10.269531 9.332031 10.167969 9.503906 10.097656 C 9.671875 10.027344 9.851562 9.992188 10.039062 9.992188 Z M 10.039062 9.992188 " fill-opacity="1" fill-rule="nonzero"/><path fill="#e1773d" d="M 9.996094 10.511719 L 19.46875 10.511719 C 19.714844 10.511719 19.921875 10.597656 20.09375 10.769531 C 20.265625 10.945312 20.351562 11.152344 20.351562 11.398438 C 20.351562 11.644531 20.265625 11.851562 20.09375 12.027344 C 19.921875 12.199219 19.714844 12.285156 19.46875 12.285156 L 9.996094 12.285156 C 9.75 12.285156 9.542969 12.199219 9.371094 12.027344 C 9.199219 11.851562 9.113281 11.644531 9.113281 11.398438 C 9.113281 11.152344 9.199219 10.945312 9.371094 10.769531 C 9.542969 10.597656 9.75 10.511719 9.996094 10.511719 Z M 9.996094 10.511719 " fill-opacity="1" fill-rule="nonzero"/><path fill="#f4a360" d="M 12.335938 15.640625 C 12.335938 15.105469 12.765625 14.675781 13.292969 14.675781 L 16.171875 14.675781 C 16.699219 14.675781 17.128906 15.105469 17.128906 15.640625 L 17.128906 19.441406 C 17.128906 19.789062 16.945312 20.109375 16.636719 20.257812 C 16.152344 20.492188 15.40625 20.796875 14.835938 20.808594 C 14.203125 20.820312 13.371094 20.496094 12.84375 20.253906 C 12.527344 20.109375 12.335938 19.785156 12.335938 19.429688 Z M 12.335938 15.640625 " fill-opacity="1" fill-rule="nonzero"/><path fill="#e1773d" d="M 17.128906 17.75 C 16.523438 18.101562 15.820312 18.304688 15.070312 18.304688 L 14.140625 18.304688 C 13.492188 18.304688 12.878906 18.019531 12.335938 17.75 L 12.335938 15.765625 C 12.335938 15.230469 12.765625 14.800781 13.292969 14.800781 L 16.171875 14.800781 C 16.699219 14.800781 17.128906 15.230469 17.128906 15.765625 Z M 17.128906 17.75 " fill-opacity="1" fill-rule="nonzero"/><path fill="#f4a360" d="M 10.15625 9.550781 C 10.15625 7.234375 12.027344 5.355469 14.332031 5.355469 L 15.132812 5.355469 C 17.4375 5.355469 19.308594 7.234375 19.308594 9.550781 L 19.308594 13.277344 C 19.308594 15.558594 17.46875 17.40625 15.199219 17.40625 L 14.269531 17.40625 C 11.996094 17.40625 10.15625 15.558594 10.15625 13.277344 Z M 10.15625 9.550781 " fill-opacity="1" fill-rule="nonzero"/><path fill="#530028" d="M 12.273438 11.1875 C 12.519531 11.1875 12.71875 10.882812 12.71875 10.511719 C 12.71875 10.136719 12.519531 9.835938 12.273438 9.835938 C 12.03125 9.835938 11.832031 10.136719 11.832031 10.511719 C 11.832031 10.882812 12.03125 11.1875 12.273438 11.1875 Z M 12.273438 11.1875 " fill-opacity="1" fill-rule="nonzero"/><path fill="#530028" d="M 17.191406 11.1875 C 17.433594 11.1875 17.632812 10.882812 17.632812 10.511719 C 17.632812 10.136719 17.433594 9.835938 17.191406 9.835938 C 16.945312 9.835938 16.75 10.136719 16.75 10.511719 C 16.75 10.882812 16.945312 11.1875 17.191406 11.1875 Z M 17.191406 11.1875 " fill-opacity="1" fill-rule="nonzero"/><path fill="#e1773d" d="M 14.996094 12.695312 C 15.183594 12.695312 15.34375 12.53125 15.25 12.367188 C 15.222656 12.324219 15.195312 12.285156 15.160156 12.25 C 15.046875 12.132812 14.894531 12.066406 14.734375 12.066406 C 14.574219 12.066406 14.417969 12.132812 14.304688 12.25 C 14.269531 12.285156 14.242188 12.324219 14.214844 12.367188 C 14.121094 12.53125 14.28125 12.695312 14.46875 12.695312 Z M 14.996094 12.695312 " fill-opacity="1" fill-rule="nonzero"/><path fill="#f41c67" d="M 16.058594 13.828125 C 16.058594 13.9375 16.023438 14.046875 15.957031 14.152344 C 15.890625 14.253906 15.792969 14.347656 15.671875 14.425781 C 15.546875 14.503906 15.402344 14.566406 15.238281 14.609375 C 15.078125 14.652344 14.90625 14.675781 14.734375 14.675781 C 14.558594 14.675781 14.386719 14.652344 14.226562 14.609375 C 14.0625 14.566406 13.917969 14.503906 13.792969 14.425781 C 13.671875 14.347656 13.574219 14.253906 13.507812 14.152344 C 13.441406 14.046875 13.40625 13.9375 13.40625 13.828125 Z M 16.058594 13.828125 " fill-opacity="1" fill-rule="nonzero"/><path fill="#cc0349" d="M 14.539062 13.488281 C 14.664062 13.578125 14.746094 13.765625 14.734375 13.917969 C 14.214844 13.886719 13.40625 13.832031 13.40625 13.832031 C 13.40625 13.703125 13.476562 13.578125 13.601562 13.488281 C 13.726562 13.394531 13.894531 13.34375 14.070312 13.34375 C 14.246094 13.34375 14.414062 13.394531 14.539062 13.488281 Z M 14.539062 13.488281 " fill-opacity="1" fill-rule="nonzero"/><path fill="#cc0349" d="M 14.734375 13.917969 C 15.25 13.886719 16.058594 13.832031 16.058594 13.832031 C 16.058594 13.703125 15.988281 13.578125 15.863281 13.488281 C 15.742188 13.394531 15.570312 13.34375 15.394531 13.34375 C 15.21875 13.34375 15.050781 13.394531 14.925781 13.488281 C 14.800781 13.578125 14.71875 13.765625 14.734375 13.917969 Z M 14.734375 13.917969 " fill-opacity="1" fill-rule="nonzero"/><g clip-path="url(#8875f5eb37)"><path fill="#fed501" d="M 15.492188 1.035156 L 13.972656 1.035156 L 13.972656 5.070312 C 11.511719 5.460938 8.636719 7.765625 8.636719 7.765625 L 8.636719 9.277344 C 8.636719 9.507812 8.914062 9.632812 9.085938 9.488281 C 10.066406 8.671875 12.476562 6.859375 14.566406 6.8125 C 16.769531 6.761719 19.355469 8.664062 20.378906 9.496094 C 20.554688 9.640625 20.828125 9.515625 20.828125 9.289062 L 20.828125 7.765625 C 20.828125 7.765625 18.003906 5.550781 15.492188 5.097656 Z M 15.492188 1.035156 " fill-opacity="1" fill-rule="nonzero"/></g><g clip-path="url(#59d7c00b60)"><path stroke-linecap="round" transform="matrix(0.0521594, 0, 0, 0.0524099, 1.379793, 1.034914)" fill="none" stroke-linejoin="round" d="M 205.108301 346.581492 C 205.108301 346.581492 194.923183 396.369309 205.108301 425.80971 C 215.817654 456.815296 243.227606 498.329988 259.104409 496.9884 C 269.963543 496.019476 296.999042 455.622774 306.435255 425.80971 C 315.796577 395.996646 306.435255 346.581492 306.435255 346.581492 " stroke="#2bb24e" stroke-width="5" stroke-opacity="1" stroke-miterlimit="4"/></g><path fill="#fed501" d="M 11.953125 21.046875 C 11.953125 21.367188 11.695312 21.625 11.378906 21.625 C 11.0625 21.625 10.804688 21.367188 10.804688 21.046875 C 10.804688 20.726562 11.0625 20.46875 11.378906 20.46875 C 11.695312 20.46875 11.953125 20.726562 11.953125 21.046875 Z M 11.953125 21.046875 " fill-opacity="1" fill-rule="nonzero"/><path fill="#fed501" d="M 12.109375 22.835938 C 12.109375 23.15625 11.855469 23.414062 11.535156 23.414062 C 11.21875 23.414062 10.960938 23.15625 10.960938 22.835938 C 10.960938 22.519531 11.21875 22.261719 11.535156 22.261719 C 11.855469 22.261719 12.109375 22.519531 12.109375 22.835938 Z M 12.109375 22.835938 " fill-opacity="1" fill-rule="nonzero"/><path fill="#fed501" d="M 18.085938 21.625 C 18.402344 21.625 18.660156 21.367188 18.660156 21.046875 C 18.660156 20.726562 18.402344 20.46875 18.085938 20.46875 C 17.769531 20.46875 17.511719 20.726562 17.511719 21.046875 C 17.511719 21.367188 17.769531 21.625 18.085938 21.625 Z M 18.085938 21.625 " fill-opacity="1" fill-rule="nonzero"/><path fill="#fed501" d="M 18.523438 22.597656 C 18.523438 22.917969 18.265625 23.175781 17.945312 23.175781 C 17.628906 23.175781 17.371094 22.917969 17.371094 22.597656 C 17.371094 22.277344 17.628906 22.019531 17.945312 22.019531 C 18.265625 22.019531 18.523438 22.277344 18.523438 22.597656 Z M 18.523438 22.597656 " fill-opacity="1" fill-rule="nonzero"/><path fill="#fed501" d="M 12.160156 25.207031 C 12.480469 25.207031 12.738281 24.949219 12.738281 24.628906 C 12.738281 24.308594 12.480469 24.050781 12.160156 24.050781 C 11.84375 24.050781 11.585938 24.308594 11.585938 24.628906 C 11.585938 24.949219 11.84375 25.207031 12.160156 25.207031 Z M 12.160156 25.207031 " fill-opacity="1" fill-rule="nonzero"/><path fill="#fed501" d="M 17.945312 24.628906 C 17.945312 24.949219 17.6875 25.207031 17.371094 25.207031 C 17.054688 25.207031 16.796875 24.949219 16.796875 24.628906 C 16.796875 24.308594 17.054688 24.050781 17.371094 24.050781 C 17.6875 24.050781 17.945312 24.308594 17.945312 24.628906 Z M 17.945312 24.628906 " fill-opacity="1" fill-rule="nonzero"/><path fill="#fed501" d="M 13.105469 26.714844 C 13.421875 26.714844 13.679688 26.453125 13.679688 26.136719 C 13.679688 25.816406 13.421875 25.558594 13.105469 25.558594 C 12.789062 25.558594 12.53125 25.816406 12.53125 26.136719 C 12.53125 26.453125 12.789062 26.714844 13.105469 26.714844 Z M 13.105469 26.714844 " fill-opacity="1" fill-rule="nonzero"/><path fill="#fed501" d="M 17.058594 26.136719 C 17.058594 26.453125 16.800781 26.714844 16.484375 26.714844 C 16.164062 26.714844 15.90625 26.453125 15.90625 26.136719 C 15.90625 25.816406 16.164062 25.558594 16.484375 25.558594 C 16.800781 25.558594 17.058594 25.816406 17.058594 26.136719 Z M 17.058594 26.136719 " fill-opacity="1" fill-rule="nonzero"/><g clip-path="url(#b3e725d903)"><path fill="#fed501" d="M 14.734375 27.867188 C 15.050781 27.867188 15.308594 27.609375 15.308594 27.289062 C 15.308594 26.972656 15.050781 26.714844 14.734375 26.714844 C 14.414062 26.714844 14.15625 26.972656 14.15625 27.289062 C 14.15625 27.609375 14.414062 27.867188 14.734375 27.867188 Z M 14.734375 27.867188 " fill-opacity="1" fill-rule="nonzero"/></g><path fill="#cc0349" d="M 11.378906 22.5 C 11.695312 22.5 11.953125 22.242188 11.953125 21.921875 C 11.953125 21.605469 11.695312 21.34375 11.378906 21.34375 C 11.0625 21.34375 10.804688 21.605469 10.804688 21.921875 C 10.804688 22.242188 11.0625 22.5 11.378906 22.5 Z M 11.378906 22.5 " fill-opacity="1" fill-rule="nonzero"/><path fill="#cc0349" d="M 17.945312 22.5 C 18.265625 22.5 18.523438 22.242188 18.523438 21.921875 C 18.523438 21.605469 18.265625 21.34375 17.945312 21.34375 C 17.628906 21.34375 17.371094 21.605469 17.371094 21.921875 C 17.371094 22.242188 17.628906 22.5 17.945312 22.5 Z M 17.945312 22.5 " fill-opacity="1" fill-rule="nonzero"/><path fill="#cc0349" d="M 12.335938 23.753906 C 12.335938 24.070312 12.078125 24.332031 11.761719 24.332031 C 11.441406 24.332031 11.183594 24.070312 11.183594 23.753906 C 11.183594 23.433594 11.441406 23.175781 11.761719 23.175781 C 12.078125 23.175781 12.335938 23.433594 12.335938 23.753906 Z M 12.335938 23.753906 " fill-opacity="1" fill-rule="nonzero"/><path fill="#cc0349" d="M 17.632812 24.246094 C 17.949219 24.246094 18.207031 23.988281 18.207031 23.667969 C 18.207031 23.351562 17.949219 23.089844 17.632812 23.089844 C 17.316406 23.089844 17.058594 23.351562 17.058594 23.667969 C 17.058594 23.988281 17.316406 24.246094 17.632812 24.246094 Z M 17.632812 24.246094 " fill-opacity="1" fill-rule="nonzero"/><path fill="#cc0349" d="M 13.105469 25.339844 C 13.105469 25.660156 12.847656 25.917969 12.53125 25.917969 C 12.210938 25.917969 11.953125 25.660156 11.953125 25.339844 C 11.953125 25.023438 12.210938 24.761719 12.53125 24.761719 C 12.847656 24.761719 13.105469 25.023438 13.105469 25.339844 Z M 13.105469 25.339844 " fill-opacity="1" fill-rule="nonzero"/><path fill="#cc0349" d="M 16.894531 25.9375 C 17.210938 25.9375 17.46875 25.679688 17.46875 25.359375 C 17.46875 25.042969 17.210938 24.78125 16.894531 24.78125 C 16.574219 24.78125 16.316406 25.042969 16.316406 25.359375 C 16.316406 25.679688 16.574219 25.9375 16.894531 25.9375 Z M 16.894531 25.9375 " fill-opacity="1" fill-rule="nonzero"/><g clip-path="url(#2b78db4eba)"><path fill="#cc0349" d="M 14.335938 26.945312 C 14.335938 27.265625 14.078125 27.523438 13.757812 27.523438 C 13.441406 27.523438 13.183594 27.265625 13.183594 26.945312 C 13.183594 26.628906 13.441406 26.367188 13.757812 26.367188 C 14.078125 26.367188 14.335938 26.628906 14.335938 26.945312 Z M 14.335938 26.945312 " fill-opacity="1" fill-rule="nonzero"/></g><g clip-path="url(#ea6fa65cd1)"><path fill="#cc0349" d="M 15.742188 27.523438 C 16.058594 27.523438 16.316406 27.265625 16.316406 26.945312 C 16.316406 26.628906 16.058594 26.367188 15.742188 26.367188 C 15.425781 26.367188 15.167969 26.628906 15.167969 26.945312 C 15.167969 27.265625 15.425781 27.523438 15.742188 27.523438 Z M 15.742188 27.523438 " fill-opacity="1" fill-rule="nonzero"/></g></svg>