<svg xmlns="http://www.w3.org/2000/svg" xmlns:xlink="http://www.w3.org/1999/xlink" width="48" zoomAndPan="magnify" viewBox="0 0 36 36.000001" height="48" preserveAspectRatio="xMidYMid meet" version="1.0"><defs><clipPath id="55fb9173c9"><path d="M 0.488281 0 L 35.511719 0 L 35.511719 35.027344 L 0.488281 35.027344 Z M 0.488281 0 " clip-rule="nonzero"/></clipPath><clipPath id="9a024e083b"><path d="M 4 22 L 31.71875 22 L 31.71875 33.101562 L 4 33.101562 Z M 4 22 " clip-rule="nonzero"/></clipPath><clipPath id="d8f52494b2"><path d="M 13 21 L 23 21 L 23 33.101562 L 13 33.101562 Z M 13 21 " clip-rule="nonzero"/></clipPath><clipPath id="5e01fb21f0"><path d="M 11 1.78125 L 25 1.78125 L 25 10 L 11 10 Z M 11 1.78125 " clip-rule="nonzero"/></clipPath><clipPath id="5aa00b49f3"><path d="M 6 23 L 15 23 L 15 33.101562 L 6 33.101562 Z M 6 23 " clip-rule="nonzero"/></clipPath><clipPath id="407bbffcdd"><path d="M 21 23 L 29 23 L 29 33.101562 L 21 33.101562 Z M 21 23 " clip-rule="nonzero"/></clipPath></defs><g clip-path="url(#55fb9173c9)"><path fill="#ffffff" d="M 0.488281 0 L 35.511719 0 L 35.511719 35.027344 L 0.488281 35.027344 Z M 0.488281 0 " fill-opacity="1" fill-rule="nonzero"/><path fill="#ffffff" d="M 0.488281 0 L 35.511719 0 L 35.511719 35.027344 L 0.488281 35.027344 Z M 0.488281 0 " fill-opacity="1" fill-rule="nonzero"/></g><path fill="#6c0a3c" d="M 11.535156 9.851562 L 24.175781 9.851562 L 24.175781 12.839844 L 11.535156 12.839844 Z M 11.535156 9.851562 " fill-opacity="1" fill-rule="nonzero"/><g clip-path="url(#9a024e083b)"><path fill="#f2f2f2" d="M 30.101562 33.101562 C 30.988281 33.101562 31.71875 32.375 31.539062 31.511719 C 31.09375 29.34375 29.738281 27.320312 27.648438 25.75 C 25.050781 23.800781 21.527344 22.703125 17.855469 22.703125 C 14.179688 22.703125 10.660156 23.800781 8.0625 25.75 C 5.96875 27.320312 4.613281 29.34375 4.167969 31.511719 C 3.988281 32.375 4.722656 33.101562 5.605469 33.101562 Z M 30.101562 33.101562 " fill-opacity="1" fill-rule="nonzero"/></g><path fill="#f4a360" d="M 12.351562 12.167969 L 23.359375 12.167969 C 23.574219 12.167969 23.785156 12.210938 23.988281 12.292969 C 24.1875 12.375 24.367188 12.496094 24.519531 12.648438 C 24.675781 12.804688 24.792969 12.980469 24.875 13.183594 C 24.960938 13.382812 25 13.59375 25 13.8125 C 25 14.027344 24.960938 14.238281 24.875 14.441406 C 24.792969 14.640625 24.675781 14.820312 24.519531 14.972656 C 24.367188 15.125 24.1875 15.246094 23.988281 15.328125 C 23.785156 15.414062 23.574219 15.453125 23.359375 15.453125 L 12.351562 15.453125 C 12.132812 15.453125 11.921875 15.414062 11.722656 15.328125 C 11.519531 15.246094 11.34375 15.125 11.1875 14.972656 C 11.035156 14.820312 10.914062 14.640625 10.832031 14.441406 C 10.75 14.238281 10.707031 14.027344 10.707031 13.8125 C 10.707031 13.59375 10.75 13.382812 10.832031 13.183594 C 10.914062 12.980469 11.035156 12.804688 11.1875 12.648438 C 11.34375 12.496094 11.519531 12.375 11.722656 12.292969 C 11.921875 12.210938 12.132812 12.167969 12.351562 12.167969 Z M 12.351562 12.167969 " fill-opacity="1" fill-rule="nonzero"/><path fill="#e1773d" d="M 12.300781 12.839844 L 23.410156 12.839844 C 23.546875 12.839844 23.679688 12.867188 23.804688 12.921875 C 23.933594 12.972656 24.042969 13.046875 24.140625 13.144531 C 24.238281 13.242188 24.3125 13.355469 24.367188 13.480469 C 24.417969 13.609375 24.445312 13.738281 24.445312 13.875 C 24.445312 14.015625 24.417969 14.144531 24.367188 14.273438 C 24.3125 14.398438 24.238281 14.511719 24.140625 14.609375 C 24.042969 14.707031 23.933594 14.78125 23.804688 14.832031 C 23.679688 14.886719 23.546875 14.914062 23.410156 14.914062 L 12.300781 14.914062 C 12.160156 14.914062 12.03125 14.886719 11.902344 14.832031 C 11.777344 14.78125 11.664062 14.707031 11.566406 14.609375 C 11.46875 14.511719 11.394531 14.398438 11.34375 14.273438 C 11.289062 14.144531 11.261719 14.015625 11.261719 13.875 C 11.261719 13.738281 11.289062 13.609375 11.34375 13.480469 C 11.394531 13.355469 11.46875 13.242188 11.566406 13.144531 C 11.664062 13.046875 11.777344 12.972656 11.902344 12.921875 C 12.03125 12.867188 12.160156 12.839844 12.300781 12.839844 Z M 12.300781 12.839844 " fill-opacity="1" fill-rule="nonzero"/><path fill="#ebe6e6" d="M 13.585938 21.601562 L 22.121094 21.601562 L 22.121094 23.226562 L 13.585938 23.226562 Z M 13.585938 21.601562 " fill-opacity="1" fill-rule="nonzero"/><path fill="#f4a360" d="M 15.042969 18.824219 C 15.042969 18.203125 15.546875 17.699219 16.167969 17.699219 L 19.539062 17.699219 C 20.160156 17.699219 20.664062 18.203125 20.664062 18.824219 L 20.664062 23.265625 C 20.664062 23.667969 20.449219 24.042969 20.085938 24.21875 C 19.515625 24.488281 18.644531 24.847656 17.972656 24.859375 C 17.234375 24.875 16.257812 24.496094 15.640625 24.214844 C 15.265625 24.042969 15.042969 23.664062 15.042969 23.25 Z M 15.042969 18.824219 " fill-opacity="1" fill-rule="nonzero"/><path fill="#e1773d" d="M 15.042969 18.394531 L 20.664062 18.394531 L 20.664062 21.761719 L 15.042969 21.761719 Z M 15.042969 18.394531 " fill-opacity="1" fill-rule="nonzero"/><path fill="#f4a360" d="M 12.488281 9.851562 L 23.21875 9.851562 L 23.21875 18.875 C 23.21875 19.988281 21.902344 20.886719 20.28125 20.886719 L 15.425781 20.886719 C 13.804688 20.886719 12.488281 19.988281 12.488281 18.875 Z M 12.488281 9.851562 " fill-opacity="1" fill-rule="nonzero"/><path fill="#6c0a3c" d="M 14.457031 17.105469 L 12.488281 17.105469 L 12.488281 18.746094 C 12.488281 19.929688 13.804688 20.886719 15.425781 20.886719 L 20.28125 20.886719 C 21.902344 20.886719 23.21875 19.929688 23.21875 18.746094 L 23.21875 17.101562 L 21.25 17.101562 C 21.21875 16.863281 21.136719 16.628906 21.003906 16.402344 C 20.835938 16.109375 20.582031 15.84375 20.265625 15.621094 C 19.949219 15.394531 19.574219 15.21875 19.160156 15.097656 C 18.746094 14.976562 18.300781 14.914062 17.855469 14.914062 C 17.40625 14.914062 16.960938 14.976562 16.546875 15.097656 C 16.136719 15.21875 15.757812 15.394531 15.441406 15.621094 C 15.125 15.84375 14.875 16.109375 14.703125 16.402344 C 14.570312 16.628906 14.488281 16.863281 14.457031 17.105469 Z M 14.457031 17.105469 " fill-opacity="1" fill-rule="nonzero"/><path fill="#530028" d="M 14.972656 13.628906 C 15.257812 13.628906 15.492188 13.277344 15.492188 12.839844 C 15.492188 12.40625 15.257812 12.054688 14.972656 12.054688 C 14.6875 12.054688 14.453125 12.40625 14.453125 12.839844 C 14.453125 13.277344 14.6875 13.628906 14.972656 13.628906 Z M 14.972656 13.628906 " fill-opacity="1" fill-rule="nonzero"/><path fill="#530028" d="M 20.734375 13.628906 C 21.023438 13.628906 21.253906 13.277344 21.253906 12.839844 C 21.253906 12.40625 21.023438 12.054688 20.734375 12.054688 C 20.449219 12.054688 20.21875 12.40625 20.21875 12.839844 C 20.21875 13.277344 20.449219 13.628906 20.734375 13.628906 Z M 20.734375 13.628906 " fill-opacity="1" fill-rule="nonzero"/><path fill="#e1773d" d="M 17.675781 13.625 C 17.726562 13.445312 17.980469 13.445312 18.03125 13.625 L 18.367188 14.820312 C 18.398438 14.9375 18.3125 15.054688 18.191406 15.054688 L 17.515625 15.054688 C 17.394531 15.054688 17.308594 14.9375 17.339844 14.820312 Z M 17.675781 13.625 " fill-opacity="1" fill-rule="nonzero"/><path fill="#300030" d="M 19.902344 16.121094 C 19.902344 16.355469 19.847656 16.589844 19.746094 16.808594 C 19.640625 17.027344 19.492188 17.226562 19.300781 17.390625 C 19.113281 17.558594 18.886719 17.691406 18.636719 17.78125 C 18.390625 17.871094 18.121094 17.917969 17.855469 17.917969 C 17.585938 17.917969 17.320312 17.871094 17.070312 17.78125 C 16.820312 17.691406 16.597656 17.558594 16.40625 17.390625 C 16.214844 17.226562 16.066406 17.027344 15.960938 16.808594 C 15.859375 16.589844 15.808594 16.355469 15.808594 16.121094 Z M 19.902344 16.121094 " fill-opacity="1" fill-rule="nonzero"/><path fill="#ffffff" d="M 15.890625 16.625 C 15.835938 16.460938 15.808594 16.292969 15.808594 16.121094 L 19.902344 16.121094 C 19.902344 16.292969 19.875 16.460938 19.820312 16.625 Z M 15.890625 16.625 " fill-opacity="1" fill-rule="nonzero"/><path fill="#f41c67" d="M 19.28125 17.410156 C 19.09375 17.570312 18.875 17.695312 18.636719 17.78125 C 18.390625 17.871094 18.121094 17.917969 17.855469 17.917969 C 17.585938 17.917969 17.320312 17.871094 17.070312 17.78125 C 16.832031 17.695312 16.613281 17.570312 16.425781 17.410156 C 16.613281 17.253906 16.832031 17.125 17.070312 17.039062 C 17.320312 16.949219 17.585938 16.902344 17.855469 16.902344 C 18.121094 16.902344 18.390625 16.949219 18.636719 17.039062 C 18.875 17.125 19.09375 17.253906 19.28125 17.410156 Z M 19.28125 17.410156 " fill-opacity="1" fill-rule="nonzero"/><g clip-path="url(#d8f52494b2)"><path fill="#ebe6e6" d="M 13.730469 21.628906 C 13.53125 21.546875 13.3125 21.695312 13.3125 21.910156 L 13.3125 23.078125 C 13.3125 23.199219 13.382812 23.308594 13.492188 23.355469 L 17.28125 25.042969 L 19.753906 33.101562 L 21.265625 33.101562 L 19.960938 29.578125 L 18.441406 25.039062 L 22.214844 23.355469 C 22.324219 23.308594 22.394531 23.199219 22.394531 23.078125 L 22.394531 21.910156 C 22.394531 21.695312 22.175781 21.546875 21.976562 21.628906 L 17.96875 23.230469 C 17.894531 23.261719 17.8125 23.261719 17.742188 23.230469 Z M 13.730469 21.628906 " fill-opacity="1" fill-rule="nonzero"/></g><g clip-path="url(#5e01fb21f0)"><path fill="#00222f" d="M 12.171875 4.480469 C 12.351562 2.941406 13.65625 1.78125 15.207031 1.78125 L 20.5 1.78125 C 22.050781 1.78125 23.355469 2.941406 23.535156 4.484375 L 24.164062 9.851562 L 11.535156 9.851562 Z M 12.171875 4.480469 " fill-opacity="1" fill-rule="nonzero"/></g><g clip-path="url(#5aa00b49f3)"><path fill="#f41c67" d="M 13.328125 23.277344 L 14.691406 33.101562 L 7.441406 33.101562 L 6.820312 26.820312 C 7.199219 26.445312 7.613281 26.085938 8.0625 25.75 C 9.558594 24.625 11.363281 23.785156 13.328125 23.277344 Z M 13.328125 23.277344 " fill-opacity="1" fill-rule="nonzero"/></g><g clip-path="url(#407bbffcdd)"><path fill="#f41c67" d="M 22.382812 23.277344 L 21.019531 33.101562 L 28.265625 33.101562 L 28.890625 26.820312 C 28.511719 26.445312 28.09375 26.085938 27.648438 25.75 C 26.148438 24.625 24.34375 23.785156 22.382812 23.277344 Z M 22.382812 23.277344 " fill-opacity="1" fill-rule="nonzero"/></g></svg>